<svg width="64" height="65" viewBox="0 0 64 65" fill="none" xmlns="http://www.w3.org/2000/svg">
<path d="M19.3148 34.1119L30.6853 42.7387C30.9765 42.9594 31.2696 43.0764 31.5328 43.0764C31.8013 43.0764 32.0356 42.9547 32.1923 42.7338C32.3422 42.5228 32.4182 42.235 32.4182 41.8783V38.5753C32.4182 37.7063 33.1252 36.9993 33.9941 36.9993H43.3736C44.4617 36.9993 45.3471 36.1137 45.3471 35.0258V30.7367C45.3471 29.6488 44.4617 28.7632 43.3736 28.7632H33.9941C33.1252 28.7632 32.4182 28.0562 32.4182 27.1872V23.884C32.4182 23.0009 31.9608 22.686 31.533 22.686C31.2697 22.686 30.9766 22.803 30.6855 23.0238L19.315 31.6505C18.888 31.9743 18.6528 32.4114 18.6528 32.8817C18.6527 33.3512 18.8877 33.7883 19.3148 34.1119Z" fill="#FFAFCC" stroke="black" stroke-width="0.00064"/>
<path d="M31.9998 0.880859C14.355 0.880859 0 15.2359 0 32.8809C0 50.5259 14.355 64.8809 31.9998 64.8809C49.6445 64.8809 63.9995 50.5259 63.9995 32.8809C63.9995 15.2359 49.6445 0.880859 31.9998 0.880859ZM31.9998 9.22898C45.0415 9.22898 55.6517 19.8389 55.6517 32.8809C55.6517 45.9229 45.0415 56.5327 31.9998 56.5327C18.958 56.5327 8.34762 45.9229 8.34762 32.8809C8.34762 19.8389 18.9581 9.22898 31.9998 9.22898Z" fill="#FFAFCC" stroke="black" stroke-width="0.00064"/>
</svg>
