<svg width="64" height="65" viewBox="0 0 64 65" fill="none" xmlns="http://www.w3.org/2000/svg">
<path d="M32 64.7023C49.6731 64.7023 64 50.3754 64 32.7023C64 15.0292 49.6731 0.702271 32 0.702271C14.3269 0.702271 0 15.0292 0 32.7023C0 50.3754 14.3269 64.7023 32 64.7023Z" fill="#6EB1E1"/>
<path d="M54.2445 37.0439H59.3957C57.5351 48.8915 48.1894 58.2581 36.3524 60.1397V54.9466H39.5061L32.0107 47.4512L24.5153 54.9466H27.6691V60.1503C15.7689 58.3001 6.38115 48.9229 4.52051 37.0439H9.7663V40.1976L17.2617 32.7022L9.7663 25.2068V28.3606H4.52051C6.38115 16.4814 15.7793 7.10438 27.6585 5.25415V10.4578H24.5047L32.0001 17.9532L39.4955 10.4578H36.3418V5.26472C48.1894 7.1465 57.5349 16.5131 59.3957 28.3606H54.2445V25.2068L46.7386 32.7022L54.234 40.1976V37.0439H54.2445Z" fill="#FCFCFD"/>
<path d="M34.7334 31.3776H29.1514V35.4668H34.7334V31.3776Z" fill="#F0BA7A"/>
<path d="M31.9579 31.3357C35.4414 31.3357 38.2654 28.5117 38.2654 25.0282C38.2654 21.5447 35.4414 18.7207 31.9579 18.7207C28.4744 18.7207 25.6504 21.5447 25.6504 25.0282C25.6504 28.5117 28.4744 31.3357 31.9579 31.3357Z" fill="#4F5565"/>
<path d="M28.3311 34.0267L31.9579 34.195L35.5847 34.0267L34.7226 45.8218H29.1931L28.3311 34.0267Z" fill="#DEDEDF"/>
<path d="M31.1067 36.7075L30.0869 43.4355L31.9581 45.8219L33.8293 43.4355L32.8097 36.7075H31.1067Z" fill="#F0582F"/>
<path d="M28.2889 34.0267C28.0366 34.1108 20.0681 37.6956 20.0681 37.6956L18.1548 45.8322H31.9577L28.2889 34.0267Z" fill="#4B5AA7"/>
<path d="M28.289 34.0267L26.7121 34.6996L24.2417 38.4525L26.586 39.22L24.5045 41.6062L29.193 45.8218H31.9578L28.289 34.0267Z" fill="#257DC0"/>
<path d="M35.6268 34.0267C35.8791 34.1108 43.8476 37.6956 43.8476 37.6956L45.7609 45.8322H31.958L35.6268 34.0267Z" fill="#4B5AA7"/>
<path d="M35.6269 34.0267L37.2038 34.6996L39.6742 38.4525L37.33 39.22L39.4115 41.6062L34.7228 45.8218H31.958L35.6269 34.0267Z" fill="#257DC0"/>
<path d="M32.3892 34.2371H31.5272L30.0869 35.6877L31.1067 36.7075H32.8097L33.8293 35.6877L32.3892 34.2371Z" fill="#D54232"/>
<path d="M28.3311 34.0268L29.0984 32.6602L31.9579 34.1951L29.866 37.0018L28.3311 34.0268Z" fill="#F1F3F7"/>
<path d="M35.5848 34.0268L34.8174 32.6602L31.958 34.1951L34.05 37.0018L35.5848 34.0268Z" fill="#F1F3F7"/>
<path d="M27.6584 24.9019C27.6584 24.9019 32.0947 25.1543 33.9659 22.4315C33.9659 22.4315 34.523 24.0505 36.0579 24.6495V26.8676H36.8253C36.8253 26.6573 36.8674 26.4365 36.8674 26.2264C36.8674 22.6521 34.6913 19.7927 32.0106 19.7927C29.3299 19.7927 27.1538 22.6941 27.1538 26.2264C27.1538 26.4367 27.1538 26.6575 27.1959 26.8676H27.753V24.9123H27.6584V24.9019Z" fill="#4F5565"/>
<path d="M36.0475 26.8678V24.6497C34.5127 24.0085 33.9554 22.4316 33.9554 22.4316C32.0842 25.1543 27.6479 24.9021 27.6479 24.9021V26.8574H27.0908C27.343 30.1373 29.3931 32.6497 31.9476 32.6497C34.4602 32.6497 36.5521 30.0952 36.8045 26.8574H36.0475V26.8678Z" fill="#F7CFA2"/>
</svg>
