<svg width="64" height="65" viewBox="0 0 64 65" fill="none" xmlns="http://www.w3.org/2000/svg">
<path d="M32.0137 64.7024C40.4932 64.7024 47.3672 62.6967 47.3672 60.2224C47.3672 57.7482 40.4932 55.7424 32.0137 55.7424C23.5342 55.7424 16.6602 57.7482 16.6602 60.2224C16.6602 62.6967 23.5342 64.7024 32.0137 64.7024Z" fill="#C1C9CB"/>
<path d="M37.5577 57.9824C41.2894 61.5024 22.8439 61.5024 26.5756 57.9824C32.3332 52.5424 32.12 24.489 32.12 24.489C32.12 24.489 31.9067 52.5424 37.5577 57.9824Z" fill="#ACAFB5"/>
<path d="M22.6308 17.8755C22.6308 17.8755 11.862 5.60886 10.9024 4.43553C9.83619 3.15553 7.59713 0.915527 4.71835 0.915527C-1.67895 0.915527 -1.46571 5.18219 4.71835 5.39553C8.76997 5.60886 19.3255 20.3289 19.3255 20.3289L22.6308 17.8755Z" fill="#839391"/>
<path d="M63.9999 26.089C63.9999 42.729 49.7126 51.5823 32.0134 51.5823C14.3142 51.5823 0.0268555 42.729 0.0268555 26.089C0.0268555 14.7823 14.3142 10.6223 32.0134 10.6223C49.7126 10.6223 63.9999 14.7823 63.9999 26.089Z" fill="#DFE9EB"/>
<path d="M32.0138 30.9956C40.8466 30.9956 48.007 24.2142 48.007 15.8489C48.007 7.48367 40.8466 0.702271 32.0138 0.702271C23.1809 0.702271 16.0205 7.48367 16.0205 15.8489C16.0205 24.2142 23.1809 30.9956 32.0138 30.9956Z" fill="#FF78B5"/>
<path d="M45.2345 41.8756C54.0673 41.8756 61.2277 35.0942 61.2277 26.7289C61.2277 18.3637 54.0673 11.5823 45.2345 11.5823C36.4016 11.5823 29.2412 18.3637 29.2412 26.7289C29.2412 35.0942 36.4016 41.8756 45.2345 41.8756Z" fill="#BEDD4B"/>
<path d="M18.7926 41.8756C27.6254 41.8756 34.7858 35.0942 34.7858 26.7289C34.7858 18.3637 27.6254 11.5823 18.7926 11.5823C9.95974 11.5823 2.79932 18.3637 2.79932 26.7289C2.79932 35.0942 9.95974 41.8756 18.7926 41.8756Z" fill="#9B5C54"/>
<path d="M60.8012 18.1956V23.7422C60.8012 31.4222 47.9 34.8356 32.0134 34.8356C16.1267 34.8356 3.22551 31.4222 3.22551 23.7422V18.1956C1.19969 20.3289 0.0268555 22.8889 0.0268555 26.0889C0.0268555 42.7289 14.3142 51.5822 32.0134 51.5822C49.7126 51.5822 63.9999 42.7289 63.9999 26.0889C63.9999 22.8889 62.827 20.3289 60.8012 18.1956Z" fill="#DFE9EB"/>
<path d="M62.7209 28.329C62.8276 29.5023 62.2944 30.569 61.5481 31.529C60.8017 32.3823 59.8421 33.129 58.8826 33.769C56.9634 35.049 54.8309 36.009 52.6985 36.7556C48.327 38.249 43.8489 38.9956 39.2642 39.4223C34.6794 39.7423 30.2013 39.7423 25.6166 39.1023C21.1385 38.569 16.6604 37.609 12.3955 36.009C16.8736 36.7556 21.2451 37.289 25.7232 37.5023C30.2013 37.7156 34.5728 37.7156 39.0509 37.289C43.4224 36.969 47.9005 36.2223 52.1654 35.1556C54.2978 34.5156 56.4303 33.8756 58.3494 32.9156C59.309 32.3823 60.2686 31.849 61.1216 31.1023C61.868 30.3556 62.6143 29.5023 62.7209 28.329Z" fill="white"/>
<path opacity="0.3" d="M24.4087 21.7903L25.992 20.2063L27.5754 21.7914L25.992 23.3743L24.4087 21.7903Z" fill="white"/>
<path opacity="0.3" d="M22.8408 17.4723L23.8964 16.4163L24.9519 17.4733L23.8964 18.5293L22.8408 17.4723Z" fill="white"/>
<path opacity="0.3" d="M28.0986 19.898L29.1542 18.842L30.2097 19.8991L29.1542 20.9551L28.0986 19.898Z" fill="white"/>
<path opacity="0.3" d="M26.5796 25.8604L27.6351 24.8044L28.6907 25.8604L27.6351 26.9164L26.5796 25.8604Z" fill="white"/>
<path opacity="0.3" d="M19.5869 23.9555L20.6425 22.8995L21.698 23.9555L20.6425 25.0115L19.5869 23.9555Z" fill="white"/>
<path opacity="0.3" d="M27.6177 18.0484L28.1455 17.5204L28.6732 18.0495L28.1444 18.5764L27.6177 18.0484Z" fill="white"/>
<path opacity="0.3" d="M19.8184 14.969L20.3461 14.442L20.8739 14.97L20.3451 15.498L19.8184 14.969Z" fill="white"/>
<path opacity="0.3" d="M19.3042 16.4549L19.832 15.928L20.3587 16.456L19.8309 16.984L19.3042 16.4549Z" fill="white"/>
<path opacity="0.3" d="M28.5625 23.4103L29.0913 22.8823L29.6181 23.4114L29.0903 23.9383L28.5625 23.4103Z" fill="white"/>
<path opacity="0.3" d="M21.1777 25.4765L21.7055 24.9485L22.2333 25.4776L21.7044 26.0045L21.1777 25.4765Z" fill="white"/>
<path opacity="0.3" d="M26.0322 28.3885L26.5611 27.8605L27.0888 28.3895L26.56 28.9165L26.0322 28.3885Z" fill="white"/>
<path opacity="0.3" d="M49.9712 22.3556L51.5545 20.7727L53.1379 22.3567L51.5535 23.9407L49.9712 22.3556Z" fill="white"/>
<path opacity="0.3" d="M48.4814 18.1134L49.537 17.0574L50.5926 18.1134L49.537 19.1694L48.4814 18.1134Z" fill="white"/>
<path opacity="0.3" d="M42.457 15.1768L43.5126 14.1208L44.5681 15.1779L43.5126 16.2339L42.457 15.1768Z" fill="white"/>
<path opacity="0.3" d="M45.8765 28.8493L46.932 27.7933L47.9876 28.8493L46.932 29.9053L45.8765 28.8493Z" fill="white"/>
<path opacity="0.3" d="M53.6631 20.4624L54.7186 19.4064L55.7742 20.4624L54.7186 21.5184L53.6631 20.4624Z" fill="white"/>
<path opacity="0.3" d="M46.4033 21.4756L47.4589 20.4196L48.5144 21.4756L47.4589 22.5316L46.4033 21.4756Z" fill="white"/>
<path opacity="0.3" d="M53.1792 18.6147L53.708 18.0878L54.2348 18.6158L53.707 19.1438L53.1792 18.6147Z" fill="white"/>
<path opacity="0.3" d="M49.0518 14.7096L49.5806 14.1826L50.1073 14.7106L49.5795 15.2386L49.0518 14.7096Z" fill="white"/>
<path opacity="0.3" d="M54.2739 23.9757L54.8028 23.4487L55.3295 23.9767L54.8017 24.5037L54.2739 23.9757Z" fill="white"/>
<path opacity="0.3" d="M47.9365 26.7075L48.4643 26.1805L48.9921 26.7085L48.4632 27.2365L47.9365 26.7075Z" fill="white"/>
<path opacity="0.3" d="M43.4531 18.1572L43.9809 17.6302L44.5087 18.1582L43.9798 18.6862L43.4531 18.1572Z" fill="white"/>
<path opacity="0.3" d="M49.4492 29.1737L49.977 28.6467L50.5048 29.1747L49.9759 29.7027L49.4492 29.1737Z" fill="white"/>
<path opacity="0.3" d="M33.9741 5.28024L35.0297 4.22424L36.0852 5.28131L35.0297 6.33731L33.9741 5.28024Z" fill="white"/>
<path opacity="0.3" d="M35.1729 8.3652L36.2284 7.3092L37.284 8.36627L36.2284 9.42227L35.1729 8.3652Z" fill="white"/>
<path opacity="0.3" d="M32.8599 12.0206L33.9154 10.9646L34.971 12.0206L33.9154 13.0766L32.8599 12.0206Z" fill="white"/>
<path opacity="0.3" d="M36.7666 4.55379L37.2954 4.02686L37.8222 4.55486L37.2944 5.08286L36.7666 4.55379Z" fill="white"/>
<path opacity="0.3" d="M39.4385 6.79805L39.9663 6.27112L40.494 6.79912L39.9652 7.32712L39.4385 6.79805Z" fill="white"/>
<path opacity="0.3" d="M33.4648 7.32524L33.9937 6.79724L34.5204 7.32631L33.9926 7.85324L33.4648 7.32524Z" fill="white"/>
<path opacity="0.3" d="M32.374 10.0025L32.9029 9.47449L33.4296 10.0025L32.9018 10.5305L32.374 10.0025Z" fill="white"/>
<path opacity="0.3" d="M28.5591 4.21163L29.0869 3.68469L29.6136 4.21376L29.0858 4.74069L28.5591 4.21163Z" fill="white"/>
<path opacity="0.3" d="M31.8325 3.07243L32.3614 2.54443L32.8881 3.0735L32.3603 3.60043L31.8325 3.07243Z" fill="white"/>
</svg>
