<svg width="64" height="65" viewBox="0 0 64 65" fill="none" xmlns="http://www.w3.org/2000/svg">
<path d="M2.7334 26.6463C2.73325 28.4636 3.11165 30.2632 3.84699 31.9422C4.58233 33.6212 5.66021 35.1468 7.01908 36.4318C8.37795 37.7169 9.99119 38.7363 11.7667 39.4318C13.5422 40.1273 15.4452 40.4852 17.367 40.4852C19.2888 40.4852 21.1918 40.1273 22.9673 39.4318C24.7428 38.7363 26.356 37.7169 27.7149 36.4318C29.0738 35.1468 30.1516 33.6212 30.887 31.9422C31.6223 30.2632 32.0007 28.4636 32.0006 26.6463C32.0007 24.829 31.6223 23.0295 30.887 21.3505C30.1516 19.6715 29.0738 18.1459 27.7149 16.8608C26.356 15.5757 24.7428 14.5564 22.9673 13.8609C21.1918 13.1654 19.2888 12.8074 17.367 12.8074C15.4452 12.8074 13.5422 13.1654 11.7667 13.8609C9.99119 14.5564 8.37795 15.5757 7.01908 16.8608C5.66021 18.1459 4.58233 19.6715 3.84699 21.3505C3.11165 23.0295 2.73325 24.829 2.7334 26.6463Z" fill="#FFB300"/>
<path d="M4.56152 50.8631C4.56138 52.6804 4.93978 54.48 5.67512 56.159C6.41046 57.838 7.48834 59.3636 8.84721 60.6486C10.2061 61.9337 11.8193 62.9531 13.5948 63.6486C15.3703 64.3441 17.2733 64.702 19.1951 64.702C21.1169 64.702 23.0199 64.3441 24.7954 63.6486C26.5709 62.9531 28.1841 61.9337 29.543 60.6486C30.9019 59.3636 31.9798 57.838 32.7151 56.159C33.4504 54.48 33.8288 52.6804 33.8287 50.8631C33.8288 49.0458 33.4504 47.2463 32.7151 45.5673C31.9798 43.8883 30.9019 42.3627 29.543 41.0776C28.1841 39.7925 26.5709 38.7732 24.7954 38.0777C23.0199 37.3822 21.1169 37.0242 19.1951 37.0242C17.2733 37.0242 15.3703 37.3822 13.5948 38.0777C11.8193 38.7732 10.2061 39.7925 8.84721 41.0776C7.48834 42.3627 6.41046 43.8883 5.67512 45.5673C4.93978 47.2463 4.56138 49.0458 4.56152 50.8631Z" fill="#FFB300"/>
<path d="M57.6091 36.805C57.6091 26.1377 50.7002 28.6009 50.7002 5.62659H33.4234C33.4234 28.6009 26.5127 26.1377 26.5127 36.805V62.2424C26.5117 62.8935 26.7842 63.5184 27.2702 63.9796C27.7563 64.4408 28.4161 64.7007 29.1047 64.702H55.0189C55.7072 64.7002 56.3665 64.4402 56.8522 63.979C57.3378 63.5178 57.61 62.8932 57.6091 62.2424V36.805Z" fill="#90CAF9"/>
<path d="M52.1212 5.02832C52.1212 6.46054 50.9944 7.62119 49.606 7.62119H34.5151C33.1268 7.62119 32 6.46054 32 5.02832V3.2986C32 1.86638 33.1268 0.702271 34.5151 0.702271H49.606C50.9944 0.702271 52.1212 1.86638 52.1212 3.2986V5.02832Z" fill="#9C27B0"/>
<path d="M54.1533 58.9597C54.1538 59.0674 54.1318 59.1742 54.0885 59.2738C54.0452 59.3735 53.9816 59.4641 53.9012 59.5404C53.8208 59.6168 53.7253 59.6773 53.6201 59.7187C53.5148 59.76 53.402 59.7813 53.2881 59.7813H30.831C30.7172 59.7811 30.6045 59.7596 30.4994 59.7182C30.3943 59.6768 30.2988 59.6162 30.2185 59.5399C30.1381 59.4636 30.0745 59.3731 30.0311 59.2736C29.9878 59.174 29.9656 59.0673 29.9658 58.9597V36.8053C29.9658 33.2559 30.8109 31.6438 32.0895 29.2014C33.2437 27.0012 34.5425 24.4965 35.501 20.3936H48.62C49.5767 24.4965 50.8772 26.9995 52.0314 29.2014C53.3082 31.642 54.1533 33.2559 54.1533 36.8053V58.9597Z" fill="#FAFAFA"/>
<path d="M2.7334 37.0284L6.39179 64.7023H57.6094L61.2677 37.0284H2.7334ZM15.5378 59.5131H11.8794V52.5942H15.5378V59.5131ZM15.5378 49.1348H11.8794V42.2158H15.5378V49.1348ZM24.6838 59.5131H21.0254V52.5942H24.6838V59.5131ZM24.6838 49.1348H21.0254V42.2158H24.6838V49.1348ZM33.8298 59.5131H30.1714V52.5942H33.8298V59.5131ZM33.8298 49.1348H30.1714V42.2158H33.8298V49.1348ZM42.9758 59.5131H39.3174V52.5942H42.9758V59.5131ZM42.9758 49.1348H39.3174V42.2158H42.9758V49.1348ZM52.1218 59.5131H48.4634V52.5942H52.1218V59.5131ZM52.1218 49.1348H48.4634V42.2158H52.1218V49.1348Z" fill="#E91E63"/>
<path d="M64 33.5673C64 33.1086 63.8073 32.6686 63.4642 32.3442C63.1212 32.0198 62.6559 31.8376 62.1708 31.8376H1.8292C1.34407 31.8376 0.878802 32.0198 0.535761 32.3442C0.192719 32.6686 0 33.1086 0 33.5673V37.0285C0 37.4873 0.192719 37.9272 0.535761 38.2516C0.878802 38.576 1.34407 38.7582 1.8292 38.7582H62.1708C62.6559 38.7582 63.1212 38.576 63.4642 38.2516C63.8073 37.9272 64 37.4873 64 37.0285V33.5673Z" fill="#AD1457"/>
<path d="M17.3661 18.9165C17.3661 18.9165 15.5369 7.62313 0.90332 9.35286C4.56172 21.461 17.3661 18.9165 17.3661 18.9165Z" fill="#4CAF50"/>
</svg>
