<svg width="126" height="22" viewBox="0 0 126 22" fill="none" xmlns="http://www.w3.org/2000/svg">
<path d="M10.3389 3.86439C10.5484 3.37167 10.6531 3.1253 10.799 3.04944C10.9256 2.98352 11.0744 2.98352 11.201 3.04944C11.3469 3.1253 11.4516 3.37167 11.6611 3.86439L13.3294 7.78904C13.3914 7.9347 13.4223 8.00753 13.4702 8.0633C13.5126 8.11266 13.5644 8.15213 13.6222 8.17915C13.6876 8.2097 13.7633 8.21806 13.9145 8.2348L17.9897 8.68581C18.5013 8.74243 18.757 8.77074 18.8709 8.89273C18.9698 8.99869 19.0158 9.14706 18.9952 9.29377C18.9715 9.46263 18.7804 9.64317 18.3982 10.0043L15.3541 12.8809C15.2412 12.9877 15.1847 13.0411 15.1489 13.1061C15.1173 13.1636 15.0975 13.2275 15.0909 13.2935C15.0833 13.3682 15.0991 13.4462 15.1307 13.6022L15.9809 17.8056C16.0877 18.3333 16.1411 18.5971 16.0656 18.7484C16 18.8799 15.8797 18.9715 15.7403 18.9963C15.5798 19.0247 15.3569 18.89 14.9113 18.6205L11.3616 16.4736C11.2299 16.3939 11.164 16.3542 11.094 16.3385C11.032 16.3248 10.968 16.3248 10.906 16.3385C10.836 16.3542 10.7701 16.3939 10.6384 16.4736L7.08876 18.6205C6.64312 18.89 6.4203 19.0247 6.25979 18.9963C6.12037 18.9715 6 18.8799 5.93446 18.7484C5.85902 18.5971 5.91239 18.3333 6.01914 17.8056L6.86935 13.6022C6.90091 13.4462 6.91669 13.3682 6.9092 13.2935C6.90256 13.2275 6.88278 13.1636 6.85111 13.1061C6.81533 13.0411 6.75884 12.9877 6.64587 12.8809L3.60185 10.0043C3.21969 9.64317 3.0286 9.46263 3.00484 9.29377C2.98422 9.14706 3.03018 8.99869 3.12911 8.89273C3.24299 8.77074 3.4988 8.74243 4.01042 8.68581L8.08551 8.2348C8.23676 8.21806 8.31238 8.2097 8.37777 8.17915C8.43563 8.15213 8.48743 8.11266 8.52983 8.0633C8.57773 8.00753 8.60869 7.9347 8.67062 7.78904L10.3389 3.86439Z" fill="#FFFF00" stroke="#FFFF00" stroke-width="5.33333" stroke-linecap="round" stroke-linejoin="round"/>
<path d="M36.3389 3.86439C36.5484 3.37167 36.6531 3.1253 36.799 3.04944C36.9256 2.98352 37.0744 2.98352 37.201 3.04944C37.3469 3.1253 37.4516 3.37167 37.6611 3.86439L39.3294 7.78904C39.3914 7.9347 39.4223 8.00753 39.4702 8.0633C39.5126 8.11266 39.5644 8.15213 39.6222 8.17915C39.6876 8.2097 39.7633 8.21806 39.9145 8.2348L43.9897 8.68581C44.5013 8.74243 44.757 8.77074 44.8709 8.89273C44.9698 8.99869 45.0158 9.14706 44.9952 9.29377C44.9715 9.46263 44.7804 9.64317 44.3982 10.0043L41.3541 12.8809C41.2412 12.9877 41.1847 13.0411 41.1489 13.1061C41.1173 13.1636 41.0975 13.2275 41.0909 13.2935C41.0833 13.3682 41.0991 13.4462 41.1307 13.6022L41.9809 17.8056C42.0877 18.3333 42.1411 18.5971 42.0656 18.7484C42 18.8799 41.8797 18.9715 41.7403 18.9963C41.5798 19.0247 41.3569 18.89 40.9113 18.6205L37.3616 16.4736C37.2299 16.3939 37.164 16.3542 37.094 16.3385C37.032 16.3248 36.968 16.3248 36.906 16.3385C36.836 16.3542 36.7701 16.3939 36.6384 16.4736L33.0888 18.6205C32.6431 18.89 32.4203 19.0247 32.2598 18.9963C32.1204 18.9715 32 18.8799 31.9345 18.7484C31.859 18.5971 31.9124 18.3333 32.0191 17.8056L32.8694 13.6022C32.9009 13.4462 32.9167 13.3682 32.9092 13.2935C32.9026 13.2275 32.8828 13.1636 32.8511 13.1061C32.8153 13.0411 32.7588 12.9877 32.6459 12.8809L29.6018 10.0043C29.2197 9.64317 29.0286 9.46263 29.0048 9.29377C28.9842 9.14706 29.0302 8.99869 29.1291 8.89273C29.243 8.77074 29.4988 8.74243 30.0104 8.68581L34.0855 8.2348C34.2368 8.21806 34.3124 8.2097 34.3778 8.17915C34.4356 8.15213 34.4874 8.11266 34.5298 8.0633C34.5777 8.00753 34.6087 7.9347 34.6706 7.78904L36.3389 3.86439Z" fill="#FFFF00" stroke="#FFFF00" stroke-width="5.33333" stroke-linecap="round" stroke-linejoin="round"/>
<path d="M62.3389 3.86439C62.5484 3.37167 62.6531 3.1253 62.799 3.04944C62.9256 2.98352 63.0744 2.98352 63.201 3.04944C63.3469 3.1253 63.4516 3.37167 63.6611 3.86439L65.3294 7.78904C65.3914 7.9347 65.4223 8.00753 65.4702 8.0633C65.5126 8.11266 65.5644 8.15213 65.6222 8.17915C65.6876 8.2097 65.7633 8.21806 65.9145 8.2348L69.9897 8.68581C70.5013 8.74243 70.757 8.77074 70.8709 8.89273C70.9698 8.99869 71.0158 9.14706 70.9952 9.29377C70.9715 9.46263 70.7804 9.64317 70.3982 10.0043L67.3541 12.8809C67.2412 12.9877 67.1847 13.0411 67.1489 13.1061C67.1173 13.1636 67.0975 13.2275 67.0909 13.2935C67.0833 13.3682 67.0991 13.4462 67.1307 13.6022L67.9809 17.8056C68.0877 18.3333 68.1411 18.5971 68.0656 18.7484C68 18.8799 67.8797 18.9715 67.7403 18.9963C67.5798 19.0247 67.3569 18.89 66.9113 18.6205L63.3616 16.4736C63.2299 16.3939 63.164 16.3542 63.094 16.3385C63.032 16.3248 62.968 16.3248 62.906 16.3385C62.836 16.3542 62.7701 16.3939 62.6384 16.4736L59.0888 18.6205C58.6431 18.89 58.4203 19.0247 58.2598 18.9963C58.1204 18.9715 58 18.8799 57.9345 18.7484C57.859 18.5971 57.9124 18.3333 58.0191 17.8056L58.8694 13.6022C58.9009 13.4462 58.9167 13.3682 58.9092 13.2935C58.9026 13.2275 58.8828 13.1636 58.8511 13.1061C58.8153 13.0411 58.7588 12.9877 58.6459 12.8809L55.6018 10.0043C55.2197 9.64317 55.0286 9.46263 55.0048 9.29377C54.9842 9.14706 55.0302 8.99869 55.1291 8.89273C55.243 8.77074 55.4988 8.74243 56.0104 8.68581L60.0855 8.2348C60.2368 8.21806 60.3124 8.2097 60.3778 8.17915C60.4356 8.15213 60.4874 8.11266 60.5298 8.0633C60.5777 8.00753 60.6087 7.9347 60.6706 7.78904L62.3389 3.86439Z" fill="#FFFF00" stroke="#FFFF00" stroke-width="5.33333" stroke-linecap="round" stroke-linejoin="round"/>
<path d="M88.3389 3.86439C88.5484 3.37167 88.6531 3.1253 88.799 3.04944C88.9256 2.98352 89.0744 2.98352 89.201 3.04944C89.3469 3.1253 89.4516 3.37167 89.6611 3.86439L91.3294 7.78904C91.3914 7.9347 91.4223 8.00753 91.4702 8.0633C91.5126 8.11266 91.5644 8.15213 91.6222 8.17915C91.6876 8.2097 91.7633 8.21806 91.9145 8.2348L95.9897 8.68581C96.5013 8.74243 96.757 8.77074 96.8709 8.89273C96.9698 8.99869 97.0158 9.14706 96.9952 9.29377C96.9715 9.46263 96.7804 9.64317 96.3982 10.0043L93.3541 12.8809C93.2412 12.9877 93.1847 13.0411 93.1489 13.1061C93.1173 13.1636 93.0975 13.2275 93.0909 13.2935C93.0833 13.3682 93.0991 13.4462 93.1307 13.6022L93.9809 17.8056C94.0877 18.3333 94.1411 18.5971 94.0656 18.7484C94 18.8799 93.8797 18.9715 93.7403 18.9963C93.5798 19.0247 93.3569 18.89 92.9113 18.6205L89.3616 16.4736C89.2299 16.3939 89.164 16.3542 89.094 16.3385C89.032 16.3248 88.968 16.3248 88.906 16.3385C88.836 16.3542 88.7701 16.3939 88.6384 16.4736L85.0888 18.6205C84.6431 18.89 84.4203 19.0247 84.2598 18.9963C84.1204 18.9715 84 18.8799 83.9345 18.7484C83.859 18.5971 83.9124 18.3333 84.0191 17.8056L84.8694 13.6022C84.9009 13.4462 84.9167 13.3682 84.9092 13.2935C84.9026 13.2275 84.8828 13.1636 84.8511 13.1061C84.8153 13.0411 84.7588 12.9877 84.6459 12.8809L81.6018 10.0043C81.2197 9.64317 81.0286 9.46263 81.0048 9.29377C80.9842 9.14706 81.0302 8.99869 81.1291 8.89273C81.243 8.77074 81.4988 8.74243 82.0104 8.68581L86.0855 8.2348C86.2368 8.21806 86.3124 8.2097 86.3778 8.17915C86.4356 8.15213 86.4874 8.11266 86.5298 8.0633C86.5777 8.00753 86.6087 7.9347 86.6706 7.78904L88.3389 3.86439Z" fill="#FFFF00" stroke="#FFFF00" stroke-width="5.33333" stroke-linecap="round" stroke-linejoin="round"/>
<path d="M114.339 3.86439C114.548 3.37167 114.653 3.1253 114.799 3.04944C114.926 2.98352 115.074 2.98352 115.201 3.04944C115.347 3.1253 115.452 3.37167 115.661 3.86439L117.329 7.78904C117.391 7.9347 117.422 8.00753 117.47 8.0633C117.513 8.11266 117.564 8.15213 117.622 8.17915C117.688 8.2097 117.763 8.21806 117.915 8.2348L121.99 8.68581C122.501 8.74243 122.757 8.77074 122.871 8.89273C122.97 8.99869 123.016 9.14706 122.995 9.29377C122.971 9.46263 122.78 9.64317 122.398 10.0043L119.354 12.8809C119.241 12.9877 119.185 13.0411 119.149 13.1061C119.117 13.1636 119.097 13.2275 119.091 13.2935C119.083 13.3682 119.099 13.4462 119.131 13.6022L119.981 17.8056C120.088 18.3333 120.141 18.5971 120.066 18.7484C120 18.8799 119.88 18.9715 119.74 18.9963C119.58 19.0247 119.357 18.89 118.911 18.6205L115.362 16.4736C115.23 16.3939 115.164 16.3542 115.094 16.3385C115.032 16.3248 114.968 16.3248 114.906 16.3385C114.836 16.3542 114.77 16.3939 114.638 16.4736L111.089 18.6205C110.643 18.89 110.42 19.0247 110.26 18.9963C110.12 18.9715 110 18.8799 109.934 18.7484C109.859 18.5971 109.912 18.3333 110.019 17.8056L110.869 13.6022C110.901 13.4462 110.917 13.3682 110.909 13.2935C110.903 13.2275 110.883 13.1636 110.851 13.1061C110.815 13.0411 110.759 12.9877 110.646 12.8809L107.602 10.0043C107.22 9.64317 107.029 9.46263 107.005 9.29377C106.984 9.14706 107.03 8.99869 107.129 8.89273C107.243 8.77074 107.499 8.74243 108.01 8.68581L112.086 8.2348C112.237 8.21806 112.312 8.2097 112.378 8.17915C112.436 8.15213 112.487 8.11266 112.53 8.0633C112.578 8.00753 112.609 7.9347 112.671 7.78904L114.339 3.86439Z" fill="#FFFF00" stroke="#FFFF00" stroke-width="5.33333" stroke-linecap="round" stroke-linejoin="round"/>
</svg>
