<svg width="256" height="243" viewBox="0 0 256 243" fill="none" xmlns="http://www.w3.org/2000/svg">
<path opacity="0.5" d="M78.0509 196.684C88.396 196.684 96.7824 205.07 96.7824 215.415C96.7824 225.76 88.396 234.147 78.0509 234.147C67.7057 234.147 59.3193 225.76 59.3193 215.415C59.3193 205.07 67.7057 196.684 78.0509 196.684Z" stroke="#FFAFCC" stroke-width="16"/>
<path opacity="0.5" d="M190.44 196.685C200.785 196.685 209.172 205.07 209.172 215.416C209.172 225.761 200.785 234.148 190.44 234.148C180.095 234.148 171.708 225.761 171.708 215.416C171.708 205.07 180.095 196.685 190.44 196.685Z" stroke="#FFAFCC" stroke-width="16"/>
<path d="M12.4747 0.532746C7.59491 -1.18294 2.2483 1.38216 0.532746 6.26185C-1.18294 11.1417 1.38216 16.4883 6.26185 18.2038L12.4747 0.532746ZM242.361 95.3179L251.533 97.2092L251.546 97.1517L242.361 95.3179ZM55.6736 93.7851V59.7981H36.9421V93.7851H55.6736ZM15.7366 1.67949L12.4747 0.532746L6.26185 18.2038L9.52376 19.3507L15.7366 1.67949ZM120.977 174.83H187.198V156.099H120.977V174.83ZM55.6736 59.7981C55.6736 50.9673 55.6864 43.5983 55.0381 37.6101C54.3672 31.4114 52.9135 25.758 49.3922 20.6051L33.9267 31.1734C35.0538 32.8229 35.9242 35.0884 36.4154 39.6258C36.9294 44.3738 36.9421 50.5578 36.9421 59.7981H55.6736ZM9.52376 19.3507C17.8607 22.2818 23.3396 24.2243 27.3713 26.2024C31.1578 28.0604 32.827 29.5642 33.9267 31.1734L49.3922 20.6051C45.8434 15.412 41.125 12.086 35.6225 9.38614C30.365 6.80644 23.6536 4.463 15.7366 1.67949L9.52376 19.3507ZM36.9421 93.7851C36.9421 111.923 37.1123 125.003 38.8237 134.996C40.6509 145.664 44.2991 153.303 51.1202 160.497L64.7135 147.609C60.7154 143.392 58.5589 139.263 57.2864 131.834C55.8983 123.728 55.6736 112.379 55.6736 93.7851H36.9421ZM120.977 156.099C103.284 156.099 91.0082 156.076 81.7589 154.765C72.8326 153.499 68.1169 151.198 64.7135 147.609L51.1202 160.497C58.5362 168.319 67.937 171.724 79.129 173.31C89.998 174.853 103.842 174.83 120.977 174.83V156.099ZM46.3079 57.6956H197.793V38.9641H46.3079V57.6956ZM233.188 93.4273L226.948 123.707L245.293 127.488L251.533 97.2092L233.188 93.4273ZM197.793 57.6956C208.487 57.6956 217.899 57.7081 225.327 58.5384C229.018 58.951 231.78 59.5242 233.721 60.2063C235.736 60.9145 236.057 61.4578 235.896 61.247L250.743 49.8256C247.808 46.0117 243.682 43.8524 239.931 42.534C236.103 41.1892 231.775 40.4111 227.408 39.9229C218.719 38.9516 208.14 38.9641 197.793 38.9641V57.6956ZM251.546 97.1517C253.659 86.563 255.453 77.6789 255.893 70.5627C256.344 63.2424 255.511 56.0244 250.743 49.8256L235.896 61.247C236.67 62.2546 237.526 64.069 237.196 69.4087C236.854 74.9525 235.398 82.3561 233.176 93.4847L251.546 97.1517ZM187.198 174.83C196.71 174.83 204.692 174.846 211.127 174.058C217.817 173.24 223.918 171.451 229.244 167.11L217.411 152.59C215.847 153.863 213.631 154.881 208.852 155.467C203.817 156.082 197.179 156.099 187.198 156.099V174.83ZM226.948 123.707C224.932 133.482 223.576 139.981 221.956 144.787C220.419 149.349 218.974 151.316 217.411 152.59L229.244 167.11C234.57 162.77 237.555 157.155 239.707 150.769C241.778 144.625 243.373 136.804 245.293 127.488L226.948 123.707Z" fill="#FFAFCC"/>
<path opacity="0.5" d="M128.001 128.001L165.465 90.5381M165.465 128.001L128.001 90.5381" stroke="#FFAFCC" stroke-width="16" stroke-linecap="round"/>
</svg>
