<svg width="39" height="38" viewBox="0 0 39 38" fill="none" xmlns="http://www.w3.org/2000/svg">
<path d="M31.5 8.19442L29.8982 29.5507C29.758 31.4211 29.6878 32.3564 29.2334 33.0655C28.8332 33.6899 28.2296 34.1918 27.5022 34.5052C26.676 34.8611 25.6214 34.8611 23.5124 34.8611H15.4875C13.3785 34.8611 12.324 34.8611 11.4978 34.5052C10.7703 34.1918 10.1668 33.6899 9.76664 33.0655C9.31214 32.3564 9.242 31.4211 9.10172 29.5507L7.5 8.19442M3.5 8.19442H35.5M27.5 8.19442L26.9588 6.75099C26.4342 5.35219 26.1718 4.6528 25.6854 4.13572C25.2558 3.67909 24.7042 3.32565 24.081 3.1078C23.3752 2.86108 22.546 2.86108 20.8872 2.86108H18.1128C16.454 2.86108 15.6248 2.86108 14.919 3.1078C14.2958 3.32565 13.7442 3.67909 13.3146 4.13572C12.8281 4.6528 12.5658 5.35219 12.0413 6.75099L11.5 8.19442" stroke="#A2D2FF" stroke-width="5.33333" stroke-linecap="round" stroke-linejoin="round"/>
</svg>
